<svg width="204" height="162" viewBox="0 0 204 162" fill="none" xmlns="http://www.w3.org/2000/svg">
<path fill-rule="evenodd" clip-rule="evenodd" d="M96.1242 156.87C87.5492 161.166 77.4962 161.516 67.9835 160.293C49.5673 157.924 30.9697 148.996 21.8127 132.843C17.8629 125.876 15.868 117.975 14.4782 110.088C12.622 99.5535 11.8722 88.2288 16.5365 78.603C20.4686 70.4882 27.7658 64.5832 35.0359 59.2488C42.6555 53.658 50.9096 48.2223 60.2939 47.105C87.3647 46.5689 84.6224 56.7382 112.894 40.5644C121.112 35.8626 145.547 43.9334 153.803 46.5689C162.059 49.2043 178.35 57.335 189.399 66.9936C194.017 71.0309 198.277 75.6513 200.872 81.2093C204.758 89.531 204.57 99.2252 202.757 108.229C200.928 117.31 196.957 126.756 188.892 131.314C185.248 133.373 181.047 134.256 176.875 134.594C159.453 136.005 140.92 128.567 124.977 135.732C114.063 140.637 106.822 151.51 96.1242 156.87Z" fill="#50BEFF"/>
<path fill-rule="evenodd" clip-rule="evenodd" d="M119.927 132.097C134.076 127.431 149.408 132.838 164.305 132.638C170.905 132.55 177.96 131.094 182.503 126.306C172.552 120.447 164.998 111.129 159.496 100.976C153.994 90.8223 150.377 79.7762 146.789 68.7994C142.068 66.1078 135.992 70.6597 130.81 69.0226C128.163 68.1861 125 65.9136 123.1 67.9385C121.953 69.1608 119.817 68.4417 118.701 67.1908C117.586 65.9398 116.964 64.2768 115.706 63.1691C114.448 62.0614 112.061 61.9218 111.421 63.4709C110.312 66.1526 109.144 68.9225 107.02 70.8986C104.895 72.8747 101.526 73.8286 99.0376 72.3365C97.0936 71.1709 96.1761 68.9029 95.0438 66.9394C93.9115 64.9759 93.4698 63.2107 91.2182 63.4709C83.6125 79.4955 77.9343 95.2485 68.5777 110.318C64.5571 116.793 42.0616 141.478 28.9904 138.297C15.9193 135.116 16.8891 132.638 12.4749 128.727C17.073 138.081 25.1957 145.441 34.4703 150.199C43.7448 154.956 54.1327 157.244 64.5234 158.07C68.6235 158.396 72.7821 158.499 76.818 157.705C93.3576 154.455 103.919 137.375 119.927 132.097Z" fill="white"/>
<path fill-rule="evenodd" clip-rule="evenodd" d="M125.136 23.7412C124.798 23.6327 124.444 23.5093 124.213 23.2392C123.882 22.8505 123.904 22.2825 123.944 21.7735C124.338 16.7437 124.732 11.7138 125.126 6.68402C125.171 6.1012 125.743 5.67147 126.321 5.58541C126.9 5.49935 127.481 5.67446 128.04 5.84754C131.642 6.96395 135.244 8.08036 138.846 9.19677C139.725 9.46924 139.771 10.6895 139.586 11.591C139.401 12.4926 139.262 13.6502 140.049 14.1273C145.302 17.312 150.884 19.9538 156.678 21.9972C157.052 22.1293 157.08 22.6987 156.818 22.9975C156.556 23.2962 156.139 23.3926 155.751 23.4755C149.869 24.7305 144.113 26.5767 138.599 28.9771C137.828 29.313 136.82 29.6199 136.238 29.0125C135.823 28.5804 135.863 27.9048 135.828 27.3071C135.793 26.7094 135.529 25.9936 134.935 25.9181C131.611 25.4957 128.326 24.7659 125.136 23.7412ZM137.476 13.5391C138.282 12.2631 137.707 10.3343 136.335 9.70699C133.079 8.21936 129.663 7.0846 126.165 6.32898C126.746 7.22605 126.715 8.37351 126.664 9.44132C126.467 13.5415 126.264 17.6795 125.194 21.6424C125.101 21.985 125.542 22.2079 125.888 22.2854C128.991 22.9792 132.117 23.5689 135.259 24.0534C135 21.025 134.741 17.9967 134.483 14.9683C134.454 14.6317 134.427 14.2801 134.555 13.9676C134.763 13.4612 135.34 13.186 135.887 13.1704C136.434 13.1549 136.963 13.3484 137.476 13.5391ZM136.802 15.9256C137.049 19.479 137.296 23.0323 137.543 26.5856C137.565 26.8971 137.601 27.2409 137.832 27.4518C142.84 25.3727 148.029 23.7276 153.321 22.541C147.587 20.8946 142.75 16.3907 136.802 15.9256Z" fill="#3287BF"/>
<path fill-rule="evenodd" clip-rule="evenodd" d="M86.7407 156.983C78.1657 161.28 68.1127 161.63 58.6 160.406C40.1838 158.037 21.5862 149.109 12.4292 132.956C8.47938 125.989 6.48449 118.089 5.09467 110.201C4.33218 105.874 2.85136 99.3926 5.56286 96.4509C6.16871 95.7936 23.1886 82.0871 29.8368 72.7837C32.6872 68.795 36.8664 65.0025 41.8184 64.2708C47.5934 63.4176 52.8971 67.3989 57.095 71.4555C62.8944 77.0598 68.0991 83.2791 72.5935 89.9755C67.6407 87.8714 64.0762 83.4985 60.7862 79.2401C57.4963 74.9818 54.0968 70.526 49.2804 68.1262C44.4641 65.7263 37.7754 66.126 34.6473 70.5046C27.1916 80.9408 17.7602 89.9605 7.00178 96.9434C6.19261 97.4686 6.11945 98.6041 6.1346 99.5687C6.30949 110.703 7.5543 123.382 16.4613 130.065C23.9008 135.647 34.7003 134.919 42.8495 130.436C50.9987 125.954 56.9586 118.372 62.0753 110.606C77.0843 87.8229 86.8301 61.7815 102.962 39.7799C106.671 34.7221 111.04 29.6641 117.015 27.7574C121.002 26.4852 122.12 21.3979 122.046 17.2137C121.973 13.0294 121.577 8.27218 124.482 5.26013C123.87 12.2183 123.258 19.1765 122.645 26.1347C131.569 30.5652 136.781 39.998 140.606 49.1974C146.287 62.8581 150.143 77.2368 156.123 90.769C162.103 104.301 170.592 117.304 183.14 125.141C188.948 117.58 192.26 105.474 192.26 98.5567C188.948 94.9466 184.243 89.2993 178.738 86.7565C172.176 83.7252 164.977 89.0396 159.706 93.9854C162.619 89.5508 166.117 84.8827 171.272 83.6268C175.434 82.613 179.888 84.1252 183.34 86.6599C186.793 89.1946 189.426 92.6639 192.007 96.082C194.617 96.9434 195.186 99.3386 193.373 108.342C191.544 117.424 187.574 126.869 179.509 131.427C175.865 133.486 171.663 134.369 167.491 134.707C150.069 136.118 131.537 128.68 115.594 135.845C104.679 140.75 97.439 151.623 86.7407 156.983ZM119.583 132.4C133.732 127.735 149.064 133.142 163.961 132.942C170.561 132.854 177.616 131.397 182.159 126.61C172.208 120.75 164.654 111.433 159.152 101.279C153.65 91.126 150.033 80.08 146.445 69.1032C141.724 66.4116 135.648 70.9635 130.466 69.3264C127.819 68.4899 124.656 66.2174 122.756 68.2423C121.609 69.4646 119.473 68.7455 118.358 67.4946C117.242 66.2436 116.62 64.5806 115.362 63.4729C114.104 62.3652 111.717 62.2256 111.077 63.7747C109.968 66.4564 108.8 69.2263 106.676 71.2024C104.551 73.1785 101.182 74.1323 98.6936 72.6403C96.7497 71.4747 95.8321 69.2067 94.6998 67.2432C93.5676 65.2797 91.6921 63.3166 89.4405 63.5769C81.8348 79.6015 73.3268 95.1978 63.9702 110.267C59.9496 116.743 55.6942 123.212 49.9356 128.206C44.1771 133.2 36.6571 136.616 29.0666 135.921C22.9414 135.361 17.3775 132.241 12.131 129.03C16.729 138.385 24.8518 145.745 34.1263 150.502C43.4008 155.26 53.7887 157.547 64.1794 158.374C68.2796 158.7 72.4381 158.802 76.474 158.009C93.0137 154.758 103.575 137.679 119.583 132.4ZM105.106 68.7221C106.556 66.8496 107.461 64.5968 108.955 62.7592C110.448 60.9215 112.873 59.497 115.132 60.2067C117.234 60.8672 118.391 63.0607 119.328 65.055C119.799 66.0563 121.229 66.1338 122.26 65.7323C123.291 65.3308 124.218 64.6048 125.318 64.4848C127.594 64.2365 129.308 66.5938 131.532 67.1366C134.841 67.9443 138.167 64.5672 141.438 65.5202C142.822 65.9235 144.02 67.0805 145.458 66.9817C142.692 60.3515 140.624 53.823 137.72 47.2521C134.816 40.6811 128.508 29.0605 123.462 28.4124C118.358 27.757 110.548 33.6002 106.888 37.5913C103.228 41.5823 100.268 46.1564 97.4312 50.7689C95.0022 54.7181 92.6491 58.7139 90.3736 62.7536C93.4249 62.3204 96.0827 64.8259 97.8091 67.3789C98.8421 68.9064 100.072 70.7263 101.916 70.7196C103.216 70.7148 104.311 69.7503 105.106 68.7221Z" fill="#00160A"/>
<path d="M32.1873 35.44V43H1.89V36.9864L17.3536 22.3818C18.9955 20.8164 20.1027 19.48 20.6755 18.3727C21.2482 17.2273 21.5345 16.1009 21.5345 14.9936C21.5345 13.39 20.9809 12.1682 19.8736 11.3282C18.8045 10.45 17.22 10.0109 15.12 10.0109C13.3636 10.0109 11.7791 10.3545 10.3664 11.0418C8.95364 11.6909 7.77 12.6836 6.81545 14.02L0.0572727 9.66727C1.62273 7.33818 3.78 5.52454 6.52909 4.22636C9.27818 2.89 12.4282 2.22182 15.9791 2.22182C18.9573 2.22182 21.5536 2.71818 23.7682 3.71091C26.0209 4.66545 27.7582 6.04 28.98 7.83454C30.24 9.59091 30.87 11.6718 30.87 14.0773C30.87 16.2536 30.4118 18.2964 29.4955 20.2055C28.5791 22.1145 26.8036 24.2909 24.1691 26.7345L14.9482 35.44H32.1873Z" fill="#EC1F3A"/>
</svg>
