<svg width="1440" height="336" viewBox="0 0 1440 336" fill="none" xmlns="http://www.w3.org/2000/svg">
<path d="M-11 527.303L49.5417 515.258C110.083 503.213 231.167 479.123 352.25 513.117C473.333 546.843 594.417 638.92 715.5 673.717C836.583 708.514 957.667 686.03 1078.75 698.075C1199.83 710.12 1320.92 756.694 1381.46 779.713L1442 803V0H1381.46C1320.92 0 1199.83 0 1078.75 0C957.667 0 836.583 0 715.5 0C594.417 0 473.333 0 352.25 0C231.167 0 110.083 0 49.5417 0H-11V527.303Z" fill="url(#paint0_linear_1_32)"/>
<defs>
<linearGradient id="paint0_linear_1_32" x1="-11" y1="0" x2="1478.96" y2="92.6001" gradientUnits="userSpaceOnUse">
<stop stop-color="#1D6FAA"/>
<stop offset="1" stop-color="#6CC8FA"/>
</linearGradient>
</defs>
</svg>
