<svg width="1431" height="165" viewBox="0 0 1431 165" fill="none" xmlns="http://www.w3.org/2000/svg">
<path d="M-32 165L8.63889 163.235C49.2778 161.393 130.556 157.863 211.833 153.872C293.111 149.881 374.389 145.584 455.667 130.081C536.944 114.579 618.222 88.0256 699.5 82.8837C780.778 77.7419 862.056 94.1651 943.333 95.0093C1024.61 95.9302 1105.89 81.3488 1187.17 83.2674C1268.44 85.1861 1349.72 103.605 1390.36 112.814L1431 122.023V0H1390.36C1349.72 0 1268.44 0 1187.17 0C1105.89 0 1024.61 0 943.333 0C862.056 0 780.778 0 699.5 0C618.222 0 536.944 0 455.667 0C374.389 0 293.111 0 211.833 0C130.556 0 49.2778 0 8.63889 0H-32V165Z" fill="url(#paint0_linear_1_34)"/>
<defs>
<linearGradient id="paint0_linear_1_34" x1="1431" y1="1.93625e-05" x2="-23.6905" y2="121.346" gradientUnits="userSpaceOnUse">
<stop stop-color="#69C4F7"/>
<stop offset="1" stop-color="#2376B1"/>
</linearGradient>
</defs>
</svg>
