<svg width="1431" height="487" viewBox="0 0 1431 487" fill="none" xmlns="http://www.w3.org/2000/svg">
<path d="M-12 117.277L14.7757 118.646C41.391 120.472 94.9423 123.211 148.333 96.7368C201.724 70.2628 255.276 13.6632 308.667 2.25197C362.058 -9.15924 415.609 24.618 469 62.5032C522.391 100.388 575.942 143.295 629.333 145.577C682.724 147.859 736.276 109.517 789.667 88.5208C843.058 67.0677 896.609 62.5031 950 73.0014C1003.39 83.9562 1056.94 109.517 1110.33 128.688C1163.72 147.859 1217.28 159.727 1270.67 143.295C1324.06 126.406 1377.61 80.7611 1404.22 57.9387L1431 35.1163V487H1404.22C1377.61 487 1324.06 487 1270.67 487C1217.28 487 1163.72 487 1110.33 487C1056.94 487 1003.39 487 950 487C896.609 487 843.058 487 789.667 487C736.276 487 682.724 487 629.333 487C575.942 487 522.391 487 469 487C415.609 487 362.058 487 308.667 487C255.276 487 201.724 487 148.333 487C94.9423 487 41.391 487 14.7757 487H-12V117.277Z" fill="url(#paint0_linear_1_35)"/>
<defs>
<linearGradient id="paint0_linear_1_35" x1="1465.51" y1="487" x2="187.342" y2="-198.389" gradientUnits="userSpaceOnUse">
<stop stop-color="#69C4F7"/>
<stop offset="1" stop-color="#2376B1"/>
</linearGradient>
</defs>
</svg>
