<svg width="1440" height="568" viewBox="0 0 1440 568" fill="none" xmlns="http://www.w3.org/2000/svg">
<path d="M-2.99219 372.987L57.5495 364.467C118.091 355.947 239.174 338.907 360.258 362.952C481.341 386.808 602.424 451.939 723.508 476.552C844.591 501.165 965.674 485.261 1086.76 493.781C1207.84 502.301 1328.92 535.245 1389.47 551.528L1450.01 568V0H1389.47C1328.92 0 1207.84 0 1086.76 0C965.674 0 844.591 0 723.508 0C602.424 0 481.341 0 360.258 0C239.174 0 118.091 0 57.5495 0H-2.99219V372.987Z" fill="url(#paint0_linear_1_30)"/>
<defs>
<linearGradient id="paint0_linear_1_30" x1="-2.99219" y1="0" x2="1481.26" y2="130.411" gradientUnits="userSpaceOnUse">
<stop stop-color="#1D6FAA"/>
<stop offset="1" stop-color="#6CC8FA"/>
</linearGradient>
</defs>
</svg>
