<svg width="46" height="46" viewBox="0 0 46 46" fill="none" xmlns="http://www.w3.org/2000/svg">
<circle cx="22.817" cy="22.817" r="22.817" fill="#67C0FF"/>
<path d="M32.7812 12.1605C30.0541 9.41883 26.4229 7.91675 22.5583 7.91675C14.5958 7.91675 8.10623 14.4063 8.10623 22.3688C8.10623 24.9209 8.77706 27.4001 10.0312 29.5876L7.98956 37.0834L15.6458 35.0709C17.7604 36.223 20.1375 36.8355 22.5583 36.8355C30.5208 36.8355 37.0104 30.3459 37.0104 22.3834C37.0104 18.5188 35.5083 14.8876 32.7812 12.1605ZM22.5583 34.3855C20.4 34.3855 18.2854 33.8022 16.4333 32.7084L15.9958 32.4459L11.4458 33.6417L12.6562 29.2084L12.3646 28.7563C11.1687 26.8459 10.5271 24.6292 10.5271 22.3688C10.5271 15.748 15.9229 10.3522 22.5437 10.3522C25.7521 10.3522 28.7708 11.6063 31.0312 13.8813C33.3062 16.1563 34.5458 19.1751 34.5458 22.3834C34.575 29.0042 29.1791 34.3855 22.5583 34.3855ZM29.15 25.4022C28.7854 25.2272 27.0062 24.3522 26.6854 24.2209C26.35 24.1042 26.1166 24.0459 25.8687 24.3959C25.6208 24.7605 24.9354 25.5772 24.7312 25.8105C24.5271 26.0584 24.3083 26.0876 23.9437 25.898C23.5791 25.723 22.4125 25.3292 21.0416 24.1042C19.9625 23.1417 19.2479 21.9605 19.0291 21.5959C18.825 21.2313 19 21.0417 19.1896 20.8522C19.35 20.6917 19.5541 20.4292 19.7291 20.2251C19.9041 20.0209 19.9771 19.8605 20.0937 19.6272C20.2104 19.3792 20.1521 19.1751 20.0646 19.0001C19.9771 18.8251 19.2479 17.0459 18.9562 16.3167C18.6646 15.6167 18.3583 15.7042 18.1396 15.6897C17.9208 15.6897 17.6875 15.6897 17.4396 15.6897C17.1916 15.6897 16.8125 15.7772 16.4771 16.1417C16.1562 16.5063 15.2229 17.3813 15.2229 19.1605C15.2229 20.9397 16.5208 22.6605 16.6958 22.8938C16.8708 23.1417 19.2479 26.7876 22.8646 28.348C23.725 28.7272 24.3958 28.9459 24.9208 29.1063C25.7812 29.3834 26.5687 29.3397 27.1958 29.2522C27.8958 29.1501 29.3396 28.3772 29.6312 27.5313C29.9375 26.6855 29.9375 25.9709 29.8354 25.8105C29.7333 25.6501 29.5146 25.5772 29.15 25.4022Z" fill="white"/>
</svg>
