<svg width="46" height="46" viewBox="0 0 46 46" fill="none" xmlns="http://www.w3.org/2000/svg">
<circle cx="22.817" cy="22.817" r="22.817" fill="#67C0FF"/>
<path d="M23 6.33325C16.55 6.33325 11.3333 11.5499 11.3333 17.9999C11.3333 26.7499 23 39.6666 23 39.6666C23 39.6666 34.6666 26.7499 34.6666 17.9999C34.6666 11.5499 29.45 6.33325 23 6.33325ZM14.6666 17.9999C14.6666 13.3999 18.4 9.66659 23 9.66659C27.6 9.66659 31.3333 13.3999 31.3333 17.9999C31.3333 22.7999 26.5333 29.9833 23 34.4666C19.5333 30.0166 14.6666 22.7499 14.6666 17.9999Z" fill="white"/>
<path d="M23 22.1666C25.3012 22.1666 27.1666 20.3011 27.1666 17.9999C27.1666 15.6987 25.3012 13.8333 23 13.8333C20.6988 13.8333 18.8333 15.6987 18.8333 17.9999C18.8333 20.3011 20.6988 22.1666 23 22.1666Z" fill="white"/>
</svg>
