<svg width="29" height="30" viewBox="0 0 29 30" fill="none" xmlns="http://www.w3.org/2000/svg">
<path d="M9.53397 2.66064H19.6215C23.4643 2.66064 26.5866 5.78297 26.5866 9.62582V19.7133C26.5866 21.5606 25.8528 23.3322 24.5466 24.6384C23.2404 25.9447 21.4687 26.6785 19.6215 26.6785H9.53397C5.69111 26.6785 2.56879 23.5562 2.56879 19.7133V9.62582C2.56879 7.77854 3.30262 6.00692 4.60884 4.7007C5.91506 3.39447 7.68669 2.66064 9.53397 2.66064ZM9.29379 5.06243C8.1472 5.06243 7.04757 5.51791 6.23681 6.32867C5.42605 7.13943 4.97057 8.23906 4.97057 9.38564V19.9535C4.97057 22.3433 6.90401 24.2767 9.29379 24.2767H19.8616C21.0082 24.2767 22.1079 23.8212 22.9186 23.0105C23.7294 22.1997 24.1849 21.1001 24.1849 19.9535V9.38564C24.1849 6.99587 22.2514 5.06243 19.8616 5.06243H9.29379ZM20.8824 6.86377C21.2805 6.86377 21.6623 7.02192 21.9439 7.30344C22.2254 7.58495 22.3835 7.96676 22.3835 8.36489C22.3835 8.76301 22.2254 9.14482 21.9439 9.42633C21.6623 9.70785 21.2805 9.866 20.8824 9.866C20.4843 9.866 20.1025 9.70785 19.821 9.42633C19.5394 9.14482 19.3813 8.76301 19.3813 8.36489C19.3813 7.96676 19.5394 7.58495 19.821 7.30344C20.1025 7.02192 20.4843 6.86377 20.8824 6.86377ZM14.5777 8.66511C16.1702 8.66511 17.6975 9.29772 18.8235 10.4238C19.9496 11.5498 20.5822 13.0771 20.5822 14.6696C20.5822 16.2621 19.9496 17.7893 18.8235 18.9154C17.6975 20.0414 16.1702 20.674 14.5777 20.674C12.9852 20.674 11.458 20.0414 10.3319 18.9154C9.20586 17.7893 8.57325 16.2621 8.57325 14.6696C8.57325 13.0771 9.20586 11.5498 10.3319 10.4238C11.458 9.29772 12.9852 8.66511 14.5777 8.66511ZM14.5777 11.0669C13.6222 11.0669 12.7059 11.4465 12.0302 12.1221C11.3546 12.7977 10.975 13.7141 10.975 14.6696C10.975 15.6251 11.3546 16.5414 12.0302 17.2171C12.7059 17.8927 13.6222 18.2723 14.5777 18.2723C15.5332 18.2723 16.4496 17.8927 17.1252 17.2171C17.8008 16.5414 18.1804 15.6251 18.1804 14.6696C18.1804 13.7141 17.8008 12.7977 17.1252 12.1221C16.4496 11.4465 15.5332 11.0669 14.5777 11.0669Z" fill="#FEFEFE"/>
</svg>
