<svg width="29" height="30" viewBox="0 0 29 30" fill="none" xmlns="http://www.w3.org/2000/svg">
<path d="M19.0738 16.4571C18.7229 16.0774 18.3287 15.74 17.8994 15.452C19.6307 14.1135 20.8441 12.2159 21.3327 10.0828C21.3694 9.9284 21.3752 9.76829 21.3496 9.61169C21.3241 9.45509 21.2677 9.30511 21.1839 9.1704C21.1001 9.0357 20.9904 8.91894 20.8611 8.82689C20.7319 8.73483 20.5857 8.66929 20.431 8.63407C20.2763 8.59884 20.1161 8.59462 19.9598 8.62166C19.8034 8.64869 19.654 8.70644 19.5201 8.79156C19.3862 8.87669 19.2705 8.98751 19.1797 9.11761C19.0888 9.24772 19.0247 9.39453 18.991 9.54956C18.7637 10.5476 18.3214 11.484 17.6951 12.2935C17.0687 13.103 16.2733 13.7661 15.3643 14.2366V9.81856C15.3567 9.73036 15.339 9.64331 15.3114 9.55917C15.3033 9.48965 15.2892 9.42095 15.2694 9.35382C15.2182 9.24413 15.1506 9.14289 15.0688 9.0536C15.0472 9.02958 15.0364 8.99595 15.0136 8.97193C14.9257 8.89075 14.8261 8.82316 14.7182 8.77139C14.687 8.75457 14.6641 8.72695 14.6317 8.71374C14.5399 8.683 14.4448 8.66324 14.3483 8.6549C14.2886 8.63751 14.2275 8.62506 14.1658 8.61767L13.3804 8.61527H13.3768C13.0954 8.61328 12.8224 8.71063 12.6058 8.89019C12.3892 9.06974 12.2429 9.31997 12.1926 9.59681C12.1424 9.87365 12.1915 10.1593 12.3312 10.4035C12.4709 10.6477 12.6924 10.8348 12.9565 10.9318V16.8042C11.0534 14.8288 9.79322 12.3235 9.34179 9.61802C9.2886 9.30398 9.11284 9.02393 8.85317 8.83948C8.5935 8.65504 8.2712 8.58129 7.95716 8.63448C7.64312 8.68767 7.36307 8.86343 7.17863 9.1231C6.99418 9.38277 6.92044 9.70508 6.97363 10.0191C7.67535 14.2015 10.0075 17.9347 13.4584 20.3996C13.5078 20.4289 13.5591 20.4546 13.6122 20.4765C13.654 20.5009 13.6973 20.5225 13.7419 20.5413C13.8757 20.5949 14.0181 20.6238 14.1622 20.6266C14.3389 20.6244 14.5129 20.5825 14.6714 20.5041C14.6834 20.4981 14.6966 20.5017 14.7086 20.4957C14.8147 20.4401 14.9119 20.3689 14.9968 20.2843C15.0148 20.2675 15.0256 20.2483 15.0424 20.2303C15.1199 20.1453 15.1847 20.0494 15.2346 19.9457C15.2511 19.9116 15.2659 19.8768 15.279 19.8412C15.3317 19.7089 15.3602 19.5681 15.3631 19.4257V16.8726C16.1077 17.0909 16.7787 17.5081 17.3037 18.0795L19.2816 20.2375C19.4969 20.4722 19.7966 20.6118 20.1148 20.6256C20.4331 20.6393 20.7437 20.5261 20.9784 20.3108C21.2132 20.0955 21.3528 19.7957 21.3665 19.4775C21.3802 19.1593 21.267 18.8486 21.0517 18.6139L19.0738 16.4571ZM18.268 1.40991H10.8993C3.50545 1.40991 1.36786 3.5451 1.36786 10.9294V18.2981C1.36786 25.692 3.50305 27.8296 10.8873 27.8296H18.256C25.6499 27.8296 27.7875 25.6944 27.7875 18.3101V10.9414C27.7875 3.5475 25.6523 1.40991 18.268 1.40991ZM25.3857 18.3101C25.3857 24.3626 24.3193 25.4278 18.2548 25.4278H10.8885C4.83484 25.4278 3.76964 24.3614 3.76964 18.2969V10.9306C3.76964 4.87689 4.83604 3.8117 10.9005 3.8117H18.268C24.3205 3.8117 25.3857 4.87809 25.3857 10.9426V18.3101Z" fill="#FEFEFE"/>
</svg>
