<svg width="29" height="28" viewBox="0 0 29 28" fill="none" xmlns="http://www.w3.org/2000/svg">
<g clip-path="url(#clip0_1_581)">
<path d="M28.7133 8.4001C28.7133 8.4001 28.4398 6.46963 27.5977 5.62197C26.5312 4.50635 25.3391 4.50088 24.7922 4.43525C20.8766 4.15088 14.9977 4.15088 14.9977 4.15088H14.9867C14.9867 4.15088 9.10781 4.15088 5.19219 4.43525C4.64531 4.50088 3.45312 4.50635 2.38672 5.62197C1.54453 6.46963 1.27656 8.4001 1.27656 8.4001C1.27656 8.4001 0.992188 10.6696 0.992188 12.9337V15.0556C0.992188 17.3196 1.27109 19.5892 1.27109 19.5892C1.27109 19.5892 1.54453 21.5196 2.38125 22.3673C3.44766 23.4829 4.84766 23.4446 5.47109 23.5649C7.71328 23.7782 14.9922 23.8438 14.9922 23.8438C14.9922 23.8438 20.8766 23.8329 24.7922 23.554C25.3391 23.4884 26.5312 23.4829 27.5977 22.3673C28.4398 21.5196 28.7133 19.5892 28.7133 19.5892C28.7133 19.5892 28.9922 17.3251 28.9922 15.0556V12.9337C28.9922 10.6696 28.7133 8.4001 28.7133 8.4001ZM12.0992 17.6313V9.76182L19.6625 13.7103L12.0992 17.6313Z" fill="white"/>
</g>
<defs>
<clipPath id="clip0_1_581">
<rect width="28" height="28" fill="white" transform="translate(0.992188)"/>
</clipPath>
</defs>
</svg>
